<?xml version="1.0" encoding="UTF-8" standalone="no"?>
<!-- Created with Inkscape (http://www.inkscape.org/) -->

<svg
   version="1.1"
   id="svg1"
   width="180"
   height="180"
   viewBox="0 0 180 180"
   xmlns="http://www.w3.org/2000/svg"
   xmlns:svg="http://www.w3.org/2000/svg">
  <defs
     id="defs1" />
  <g
     id="g1">
    <g
       id="g33"
       transform="translate(-321.73418,-12.930215)">
      <path
         id="path2"
         d="m 645.55065,13.096009 v 9.561333 h -157.852 l 5.688,-9.561333 h 152.164"
         style="fill:#100f0d;fill-opacity:1;fill-rule:nonzero;stroke:none;stroke-width:0.133333" />
      <path
         id="path3"
         d="M 31.256266,189.97454 H 645.55065 V 199.536 H 21.695333 V 13.096009 H 329.70266 l 5.88,9.561333 H 31.256266 V 189.97454"
         style="fill:#100f0d;fill-opacity:1;fill-rule:nonzero;stroke:none;stroke-width:0.133333" />
      <path
         id="path4"
         d="m 360.78399,13.110676 5.88,9.561333 46.99333,76.582665 45.41467,-76.582665 5.688,-9.561333 h -103.976"
         style="fill:#50ace4;fill-opacity:1;fill-rule:nonzero;stroke:none;stroke-width:0.133333" />
      <path
         id="path6"
         d="m 317.41733,89.918674 c -1.96,-4.924 -4.73334,-9.178666 -8.27067,-12.812 -3.53733,-3.585333 -7.744,-6.358666 -12.52533,-8.270666 -4.828,-1.912 -10.03867,-2.868 -15.68,-2.868 -5.64134,0 -10.852,0.956 -15.584,2.868 -4.73334,1.912 -8.94,4.685333 -12.52534,8.270666 -3.58533,3.633334 -6.40533,7.888 -8.36533,12.812 -2.008,4.924 -3.012,10.373336 -3.012,16.397336 0,5.88 1.004,11.32933 3.012,16.3012 1.96,4.97186 4.732,9.2744 8.27067,12.90826 3.53733,3.58494 7.744,6.35734 12.524,8.26934 4.828,1.912 10.03866,2.86773 15.68,2.86773 5.64133,0 10.852,-0.95573 15.584,-2.86773 4.73333,-1.912 8.94,-4.6844 12.52533,-8.26934 3.58533,-3.63386 6.40667,-7.88906 8.36667,-12.81293 2.008,-4.92347 2.96266,-10.37387 2.96266,-16.39653 0,-6.024 -0.95466,-11.473336 -2.96266,-16.397336 z m 0,0 c -1.96,-4.924 -4.73334,-9.178666 -8.27067,-12.812 -3.53733,-3.585333 -7.744,-6.358666 -12.52533,-8.270666 -4.828,-1.912 -10.03867,-2.868 -15.68,-2.868 -5.64134,0 -10.852,0.956 -15.584,2.868 -4.73334,1.912 -8.94,4.685333 -12.52534,8.270666 -3.58533,3.633334 -6.40533,7.888 -8.36533,12.812 -2.008,4.924 -3.012,10.373336 -3.012,16.397336 0,5.88 1.004,11.32933 3.012,16.3012 1.96,4.97186 4.732,9.2744 8.27067,12.90826 3.53733,3.58494 7.744,6.35734 12.524,8.26934 4.828,1.912 10.03866,2.86773 15.68,2.86773 5.64133,0 10.852,-0.95573 15.584,-2.86773 4.73333,-1.912 8.94,-4.6844 12.52533,-8.26934 3.58533,-3.63386 6.40667,-7.88906 8.36667,-12.81293 2.008,-4.92347 2.96266,-10.37387 2.96266,-16.39653 0,-6.024 -0.95466,-11.473336 -2.96266,-16.397336 z m -8.27067,-12.812 c -3.53733,-3.585333 -7.744,-6.358666 -12.52533,-8.270666 -4.828,-1.912 -10.03867,-2.868 -15.68,-2.868 -5.64134,0 -10.852,0.956 -15.584,2.868 -4.73334,1.912 -8.94,4.685333 -12.52534,8.270666 -3.58533,3.633334 -6.40533,7.888 -8.36533,12.812 -2.008,4.924 -3.012,10.373336 -3.012,16.397336 0,5.88 1.004,11.32933 3.012,16.3012 1.96,4.97186 4.732,9.2744 8.27067,12.90826 3.53733,3.58494 7.744,6.35734 12.524,8.26934 4.828,1.912 10.03866,2.86773 15.68,2.86773 5.64133,0 10.852,-0.95573 15.584,-2.86773 4.73333,-1.912 8.94,-4.6844 12.52533,-8.26934 3.58533,-3.63386 6.40667,-7.88906 8.36667,-12.81293 2.008,-4.92347 2.96266,-10.37387 2.96266,-16.39653 0,-6.024 -0.95466,-11.473336 -2.96266,-16.397336 -1.96,-4.924 -4.73334,-9.178666 -8.27067,-12.812 z M 189.96933,169.37081 H 162.576 l -0.19067,-75.676136 -37.14467,62.338666 h -13.1464 L 75.189065,95.320007 V 169.37081 H 47.796932 V 43.261342 H 71.937998 L 119.16973,121.56507 165.636,43.261342 h 23.95066 z M 344.71332,80.261341 c 3.48934,7.888 5.25867,16.588 5.25867,26.054669 0,9.36933 -1.76933,18.07 -5.25867,26.05333 -3.48933,7.98373 -8.31733,14.86667 -14.48533,20.7 -6.21466,5.83227 -13.48,10.37333 -21.79866,13.62387 -8.36534,3.25053 -17.448,4.82813 -27.296,4.82813 -9.992,0 -19.21867,-1.5776 -27.68,-4.82813 -8.46134,-3.25054 -15.77467,-7.84014 -21.98934,-13.71974 -6.16666,-5.88026 -10.996,-12.76413 -14.38933,-20.69946 -3.44267,-7.936 -5.164,-16.58867 -5.164,-25.958 0,-9.370669 1.72133,-18.022669 5.164,-25.958669 3.39333,-7.936 8.22267,-14.818666 14.484,-20.7 6.26267,-5.878666 13.57733,-10.469333 21.99067,-13.718666 8.41333,-3.204 17.544,-4.829333 27.392,-4.829333 9.992,0 19.12266,1.625333 27.488,4.829333 8.31866,3.249333 15.584,7.84 21.79866,13.718666 6.168,5.881334 10.996,12.764 14.48533,20.604 z M 487.07599,43.261342 h 57.27066 c 13.72,0 25.81467,2.581333 36.236,7.84 10.46934,5.210666 18.644,12.523999 24.524,21.894666 5.88133,9.369333 8.79733,20.459999 8.79733,33.320002 0,12.71573 -2.916,23.80693 -8.79733,33.22413 -5.88,9.46507 -14.05466,16.7796 -24.524,21.99053 -10.42133,5.25894 -22.516,7.84014 -36.236,7.84014 h -57.27066 z m 6.31066,-30.165333 -5.688,9.561333 -60.61733,102.063468 v 44.65 h -29.20933 v -44.93694 l -62.28933,-101.776528 -5.88,-9.561333 H 21.695333 V 199.536 H 645.55065 V 13.096009 Z M 317.41733,89.918674 c -1.96,-4.924 -4.73334,-9.178666 -8.27067,-12.812 -3.53733,-3.585333 -7.744,-6.358666 -12.52533,-8.270666 -4.828,-1.912 -10.03867,-2.868 -15.68,-2.868 -5.64134,0 -10.852,0.956 -15.584,2.868 -4.73334,1.912 -8.94,4.685333 -12.52534,8.270666 -3.58533,3.633334 -6.40533,7.888 -8.36533,12.812 -2.008,4.924 -3.012,10.373336 -3.012,16.397336 0,5.88 1.004,11.32933 3.012,16.3012 1.96,4.97186 4.732,9.2744 8.27067,12.90826 3.53733,3.58494 7.744,6.35734 12.524,8.26934 4.828,1.912 10.03866,2.86773 15.68,2.86773 5.64133,0 10.852,-0.95573 15.584,-2.86773 4.73333,-1.912 8.94,-4.6844 12.52533,-8.26934 3.58533,-3.63386 6.40667,-7.88906 8.36667,-12.81293 2.008,-4.92347 2.96266,-10.37387 2.96266,-16.39653 0,-6.024 -0.95466,-11.473336 -2.96266,-16.397336 z m 0,0 c -1.96,-4.924 -4.73334,-9.178666 -8.27067,-12.812 -3.53733,-3.585333 -7.744,-6.358666 -12.52533,-8.270666 -4.828,-1.912 -10.03867,-2.868 -15.68,-2.868 -5.64134,0 -10.852,0.956 -15.584,2.868 -4.73334,1.912 -8.94,4.685333 -12.52534,8.270666 -3.58533,3.633334 -6.40533,7.888 -8.36533,12.812 -2.008,4.924 -3.012,10.373336 -3.012,16.397336 0,5.88 1.004,11.32933 3.012,16.3012 1.96,4.97186 4.732,9.2744 8.27067,12.90826 3.53733,3.58494 7.744,6.35734 12.524,8.26934 4.828,1.912 10.03866,2.86773 15.68,2.86773 5.64133,0 10.852,-0.95573 15.584,-2.86773 4.73333,-1.912 8.94,-4.6844 12.52533,-8.26934 3.58533,-3.63386 6.40667,-7.88906 8.36667,-12.81293 2.008,-4.92347 2.96266,-10.37387 2.96266,-16.39653 0,-6.024 -0.95466,-11.473336 -2.96266,-16.397336"
         style="fill:#100f0d;fill-opacity:1;fill-rule:nonzero;stroke:none;stroke-width:0.133333" />
      <rect
         style="fill:#11100e;fill-opacity:1;stroke:#11100e;stroke-opacity:1"
         id="rect30"
         width="138.80966"
         height="141.09146"
         x="483.74216"
         y="39.931545" />
      <rect
         style="fill:#11100e;fill-opacity:1;stroke:#11100e;stroke-width:1.38198;stroke-opacity:1"
         id="rect30-3"
         width="265.82834"
         height="140.70947"
         x="38.936089"
         y="39.492664" />
      <rect
         style="fill:#11100e;fill-opacity:1;stroke:#11100e;stroke-width:0.538928;stroke-opacity:1"
         id="rect30-3-1"
         width="63.590954"
         height="89.451363"
         x="292.70416"
         y="85.370621" />
      <rect
         style="fill:#11100e;fill-opacity:1;stroke:#11100e;stroke-width:0.627587;stroke-opacity:1"
         id="rect30-3-1-3"
         width="86.32032"
         height="89.362701"
         x="254.7886"
         y="42.762547" />
      <rect
         style="fill:#11100e;fill-opacity:1;stroke:#11100e;stroke-width:0.627587;stroke-opacity:1"
         id="rect30-3-1-3-6"
         width="86.32032"
         height="89.362701"
         x="267.14282"
         y="70.454697" />
    </g>
  </g>
</svg>
